<svg xmlns="http://www.w3.org/2000/svg" viewBox="0 0 5 6.25" x="0px" y="0px"><title>manicure</title><g data-name="Layer 2"><g><g><path d="M2.77964,2.29761a.79015.79015,0,0,1-.17058.06155.81919.81919,0,0,0-.1457.04139c-.01055.00468-.00631.01994.003.02294a.35148.35148,0,0,0,.32045-.11659C2.79181,2.302,2.78549,2.29476,2.77964,2.29761Z"/><path d="M2.94271,2.29679c-.01281-.01734-.0361-.04431-.06039-.04128l-.00467.00355c-.00511.022.01381.04831.025.06563a.17259.17259,0,0,0,.0519.06293.01272.01272,0,0,0,.01888-.01084A.11014.11014,0,0,0,2.94271,2.29679Z"/><path d="M.74312,1.04279A1.43953,1.43953,0,0,1,1.28681.37593s.09042.00422.03133.19837A1.60638,1.60638,0,0,1,.97627,1.115C.88342,1.20317.67879,1.23694.74312,1.04279Z"/><path d="M1.82659,2.78212,1.821,2.78285a.30028.30028,0,0,1-.15487.18043.32486.32486,0,0,0-.15529.12941.01031.01031,0,0,0,.014.014A1.01906,1.01906,0,0,0,1.766,2.9662C1.81234,2.92406,1.86275,2.84453,1.82659,2.78212Z"/><path d="M2.24539,4.37181a3.07155,3.07155,0,0,0-.18846-.31336q-.09336-.15058-.18762-.30061c-.06271-.10016-.1262-.19988-.19182-.29816a1.57913,1.57913,0,0,0-.20064-.28161.00633.00633,0,0,0-.01049.00611,1.57387,1.57387,0,0,0,.16308.30358c.061.10556.12434.20971.18837.31342s.12815.20744.19266.3109a2.93733,2.93733,0,0,0,.19015.29427C2.22233,4.4333,2.258,4.399,2.24539,4.37181Z"/><path d="M3.61865,3.57739a1.99378,1.99378,0,0,0-.31843.23825q-.15924.12094-.32608.23137c-.22234.14716-.46414.26481-.68172.41735-.00927.00651-.004.0231.00815.01933a2.9024,2.9024,0,0,0,.71689-.38286q.11366-.07542.22377-.156c-.06758.11446-.11769.243-.17777.35642a1.57132,1.57132,0,0,1-.16.24672,1.20756,1.20756,0,0,1-.2204.20406c-.01654.01263-.008.04189.01505.03571a.76482.76482,0,0,0,.41373-.396c.05484-.09737.10035-.19954.14859-.30024.041-.08551.08521-.16952.12613-.255a1.04317,1.04317,0,0,0,.25764-.23363C3.65539,3.58607,3.63407,3.57006,3.61865,3.57739Z"/><path d="M2.38352,2.358a.57358.57358,0,0,0-.08837-.15125l-.10679-.15991L1.9748,1.727q-.10366-.15525-.208-.31c-.03583-.0532-.07186-.10634-.10928-.15845a.43069.43069,0,0,0-.10746-.12294l-.00684.00526a.45282.45282,0,0,0,.076.15314c.03174.05124.06454.10181.09761.1522q.10544.16072.21153.321l.206.3112.09987.15088a.63323.63323,0,0,0,.11152.15071A.02279.02279,0,0,0,2.38352,2.358Z"/><path d="M1.82591,2.64234c-.09127-.15094-.19709-.29447-.29709-.43974-.04914-.07138-.09819-.143-.14965-.21271a.79747.79747,0,0,0-.14627-.174,1.19706,1.19706,0,0,0,.13871-.28336,1.27956,1.27956,0,0,0,.0831-.47178.63892.63892,0,0,0-.12579-.4067c-.004-.00426-.00982.00034-.009.00523.011.0647.033.12752.04536.19218a1.077,1.077,0,0,1,.01831.20929,1.2839,1.2839,0,0,1-.08009.42088.81118.81118,0,0,1-.19527.3554A.79683.79683,0,0,1,.749,1.99727a.00829.00829,0,0,0,.0022.0162.87256.87256,0,0,0,.346-.06973,1.428,1.428,0,0,1,.03187.23947c.00057.103-.01267.20744-.00184.31025a2.66182,2.66182,0,0,0,.07731.29155.56443.56443,0,0,1,.00939.28512c-.00762.027.03019.05266.04973.029a.28422.28422,0,0,0,.04046-.25816c-.01534-.05684-.04758-.10688-.06827-.1616a.59833.59833,0,0,1-.03123-.18586c-.00534-.11287.0047-.22608-.00258-.33879a.474.474,0,0,0-.06245-.23858l.00485-.00362a.4904.4904,0,0,0,.0837-.09006.823.823,0,0,0,.11164.20356c.04633.07306.09478.14479.14314.21651.09657.1432.18958.291.29439.42827C1.79859,2.69864,1.84523,2.6743,1.82591,2.64234Z"/><path d="M2.33633,2.43537c-.03606.00018-.06327.03-.09037.05147a1.01178,1.01178,0,0,1-.27776.16045.25489.25489,0,0,0-.10815.05113A.0113.0113,0,0,0,1.865,2.717a.21131.21131,0,0,0,.13594-.02141.92371.92371,0,0,0,.14295-.06572A1.01229,1.01229,0,0,0,2.2666,2.547c.03151-.02468.07862-.05855.07923-.10213A.00963.00963,0,0,0,2.33633,2.43537Z"/><path d="M3.836,2.93537a2.22642,2.22642,0,0,1-.13345.21644c-.022.0326-.04429.065-.06757.09665-.01318.01792-.02736.03491-.03864.05333l-.03419-.04563A.9263.9263,0,0,0,3.39262,3.056l-.00421.00324a1.167,1.167,0,0,0,.143.24087.751.751,0,0,0,.16145.20907c.00706.00493.01489-.00318.01343-.01032a.41215.41215,0,0,0-.07334-.14759A.50745.50745,0,0,0,3.75013,3.191a1.12174,1.12174,0,0,0,.097-.25089C3.849,2.93355,3.83928,2.92913,3.836,2.93537Z"/><path d="M2.81954.54445a.279.279,0,0,0-.26041.017.617.617,0,0,0-.1175.09244c-.0441.03976-.09156.07559-.13584.11511a2.07646,2.07646,0,0,0-.23723.27733c-.076.09721-.15466.19254-.22411.29452l.00422.00326A5.17931,5.17931,0,0,0,2.30624.86738.68288.68288,0,0,1,2.52653.65447,1.0095,1.0095,0,0,1,2.81294.56883C2.8239.56739,2.83308.55036,2.81954.54445Z"/><path d="M3.08582.69478A.23028.23028,0,0,0,2.90441.596c-.00549.00057-.01076.00815-.0052.01255a.457.457,0,0,1,.14014.13214c.03007.05411.07254.15793.03882.2124-.0797.12876-.18561.242-.25433.37788a.00756.00756,0,0,0,.01183.00912,2.01719,2.01719,0,0,0,.21356-.2004.30668.30668,0,0,0,.06291-.11458c.01144-.04675.00578-.0937.019-.14008A.19847.19847,0,0,0,3.08582.69478Z"/><path d="M3.67318.93A.327.327,0,0,0,3.46726.76522.25735.25735,0,0,0,3.22563.8354l.00366.0063A.41743.41743,0,0,1,3.46406.84139a.28947.28947,0,0,1,.19013.14536.37547.37547,0,0,1,.0284.24235.61777.61777,0,0,1-.03726.11755.29683.29683,0,0,0-.03539.10211.0217.0217,0,0,0,.03236.01858c.07952-.04318.10641-.17442.10928-.25732A.47143.47143,0,0,0,3.67318.93Z"/><path d="M3.61026,1.52685c-.10542.10387-.194.22747-.29013.34035-.09763.11466-.198.22731-.29416.34307-.00929.01119.00316.03211.01694.022A1.86746,1.86746,0,0,0,3.37732,1.91a1.44151,1.44151,0,0,0,.24073-.37856C3.61979,1.52686,3.61336,1.5238,3.61026,1.52685Z"/><path d="M4.06535,1.47482a.24636.24636,0,0,0-.25886-.13959.00865.00865,0,0,0,.00229.0169.24555.24555,0,0,1,.22525.2382.64423.64423,0,0,1-.07637.37091c-.05793.09361-.13235.17889-.19568.26911a1.77339,1.77339,0,0,1-.23608.27231c-.01266.012.00437.0355.01911.02477a1.4501,1.4501,0,0,0,.29922-.28169A2.57563,2.57563,0,0,0,4.04449,1.855.38291.38291,0,0,0,4.06535,1.47482Z"/><path d="M4.24257,2.2825A.4806.4806,0,0,0,4.03012,2.092a.00613.00613,0,0,0-.00738.00958,1.38114,1.38114,0,0,1,.14732.20044.367.367,0,0,1,.05633.12717.18883.18883,0,0,1-.06134.127,2.97823,2.97823,0,0,1-.34372.30044c-.00891.007.00074.0224.011.01888A.71667.71667,0,0,0,4.243,2.5247.29153.29153,0,0,0,4.24257,2.2825Z"/><path d="M2.259.97692a1.10086,1.10086,0,0,0-.10924.18386.39951.39951,0,0,0-.04638.1915.01232.01232,0,0,0,.02272.00615.65885.65885,0,0,0,.07235-.18077c.0225-.0657.03895-.13468.06448-.19909Z"/><path d="M2.75911,1.40847a1.19172,1.19172,0,0,1-.32345.29723c-.01377.00969-.006.03552.01229.02916a.56373.56373,0,0,0,.318-.32241A.004.004,0,0,0,2.75911,1.40847Z"/><path d="M2.79443,1.49453a1.59781,1.59781,0,0,0-.13777.18841.44155.44155,0,0,0-.09089.19847.01433.01433,0,0,0,.02417.01.59534.59534,0,0,0,.10329-.1871c.03435-.06912.07-.13783.106-.20609Z"/><path d="M2.38451,1.06557a.18542.18542,0,0,1,.26428.01631.20836.20836,0,0,1,0,.28229c-.09377.12539-.38571.51625-.57476.39595C1.86884,1.62956,2.24253,1.18787,2.38451,1.06557Z"/><path d="M2.90561,1.59494a.18543.18543,0,0,1,.26429.01631.20837.20837,0,0,1,0,.28229c-.09377.12539-.38572.51625-.57477.39595C2.38994,2.15893,2.76363,1.71724,2.90561,1.59494Z"/><path d="M3.28505,2.102a.18543.18543,0,0,1,.26349.0262.20837.20837,0,0,1-.01058.2821c-.09841.12179-.4048.50142-.58921.37412C2.7486,2.64623,3.13859,2.21887,3.28505,2.102Z"/><path d="M3.632,2.49655a.14642.14642,0,0,1,.2047.04258.16452.16452,0,0,1-.03187.22061c-.08743.08741-.3597.35991-.49386.24456C3.16538,2.8791,3.50727,2.57611,3.632,2.49655Z"/></g><path d="M3.03743,2.893c-.01271-.01018-.084.02188-.1488-.05138-.0515-.05826-.03277-.09-.06562-.12354a.20129.20129,0,0,0-.2292-.00622c-.42353.19149-.8706.43468-.7484.68343a2.70425,2.70425,0,0,0,.17768.3029,2.87028,2.87028,0,0,0,.21692.2912.30231.30231,0,0,0,.327.08491c.1241-.04307.71456-.33638.77852-.53377A.91148.91148,0,0,0,3.03743,2.893Z"/></g></g><text x="0" y="20" fill="#000000" font-size="5px" font-weight="bold" font-family="'Helvetica Neue', Helvetica, Arial-Unicode, Arial, Sans-serif">Created by Alice Noir</text><text x="0" y="25" fill="#000000" font-size="5px" font-weight="bold" font-family="'Helvetica Neue', Helvetica, Arial-Unicode, Arial, Sans-serif">from the Noun Project</text></svg>